/vscmnt/brussel_pixiu_data/_data_brussel/112/vsc11236/PredSimResults/SUBJ04opt3D/weighted/trackIG/worker_04.mot
version=1
nRows=4
nColumns=50
inDegrees=yes
endheader
                time	         pelvis_tilt	         pelvis_list	     pelvis_rotation	           pelvis_tx	           pelvis_ty	           pelvis_tz	       hip_flexion_r	     hip_adduction_r	      hip_rotation_r	        knee_angle_r	       ankle_angle_r	         mtp_angle_r	       hip_flexion_l	     hip_adduction_l	      hip_rotation_l	        knee_angle_l	       ankle_angle_l	         mtp_angle_l	    lumbar_extension	      lumbar_bending	     lumbar_rotation	 ercspn_r/activation	 intobl_r/activation	 extobl_r/activation	    abd_r/activation	    add_r/activation	hamstrings_r/activation	bifemsh_r/activation	glut_max_r/activation	iliopsoas_r/activation	rect_fem_r/activation	  vasti_r/activation	gastroc_r/activation	 soleus_r/activation	tib_ant_r/activation	 ercspn_l/activation	 intobl_l/activation	 extobl_l/activation	    abd_l/activation	    add_l/activation	hamstrings_l/activation	bifemsh_l/activation	glut_max_l/activation	iliopsoas_l/activation	rect_fem_l/activation	  vasti_l/activation	gastroc_l/activation	 soleus_l/activation	tib_ant_l/activation	
          1.31724455	         -1.54640458	          0.33450860	          7.44140754	          1.18552010	          0.88295473	         -0.00923186	         28.36453365	         -2.44792081	         -7.54661187	        -10.22369030	          4.24979057	          0.23663289	        -12.42179105	         -0.01357941	         -6.33701271	         -6.80227995	         14.17315992	         18.41627193	        -13.98514817	         -4.00182364	         -8.35994706	          0.05425524	          0.23452914	          0.02022286	          0.00999999	          0.30426758	          0.06394948	          0.01813793	          0.01399306	          0.17720896	          0.03583058	          0.04523853	          0.00999999	          0.00999999	          0.34321388	          0.01462626	          0.00999999	          0.00999999	          0.07682447	          0.00999999	          0.03124188	          0.34350655	          0.01992318	          0.02697623	          0.00999999	          0.00999999	          0.29515853	          0.26683035	          0.01219540	
          1.33041700	         -1.64498973	          0.31990093	          7.21598810	          1.20078692	          0.88054758	         -0.00882508	         28.45589728	         -2.24320712	         -7.56135726	        -11.81557147	          4.08892604	          0.22798849	        -13.09646113	         -0.10868008	         -6.99109347	         -7.34324199	         14.05798799	         19.82247517	        -13.48114493	         -3.35637845	         -8.47530450	          0.04448825	          0.22781795	          0.01658236	          0.00999999	          0.33869500	          0.06829214	          0.01487275	          0.01147404	          0.14530794	          0.02938038	          0.03709472	          0.01487279	          0.02142282	          0.33994807	          0.02944639	          0.00999999	          0.00999999	          0.06299459	          0.00999999	          0.02561774	          0.31979989	          0.01633662	          0.02211999	          0.00999999	          0.00999999	          0.28672849	          0.27299439	          0.00999999	
          1.34358944	         -1.72764642	          0.24478589	          6.95434968	          1.21647597	          0.87827040	         -0.00838370	         28.42672096	         -2.02682292	         -7.45574880	        -13.36792387	          3.83508855	          0.22418881	        -13.70996756	         -0.27331898	         -7.68206062	         -8.07117668	         13.86776347	         21.31156195	        -12.93756369	         -2.61815989	         -8.56226564	          0.03647951	          0.21384636	          0.01359722	          0.01205558	          0.27772339	          0.07763717	          0.01219538	          0.03380940	          0.11914972	          0.02409135	          0.04592993	          0.01219540	          0.01756630	          0.36222217	          0.03250205	          0.00999999	          0.00999999	          0.05165435	          0.00999999	          0.02100606	          0.26739574	          0.01339572	          0.01813796	          0.00999999	          0.00999999	          0.26239442	          0.27151366	          0.00999999	
          1.35676189	         -1.79554513	          0.10313889	          6.64693793	          1.23242039	          0.87628399	         -0.00783825	         28.31531548	         -1.75754190	         -7.46491692	        -14.76089705	          3.41826968	          0.20790518	        -14.21131566	         -0.52065854	         -8.41992451	         -9.05236284	         13.57283250	         22.87568332	        -12.37739316	         -1.79030326	         -8.60903804	          0.02991250	          0.17534991	          0.01114946	          0.01717347	          0.22986816	          0.08360455	          0.01000000	          0.02772306	          0.09770048	          0.01975445	          0.12275816	          0.01000000	          0.01440403	          0.39207929	          0.03194986	          0.00999999	          0.00999999	          0.04235558	          0.00999999	          0.05516199	          0.21925937	          0.01119255	          0.01487278	          0.00999999	          0.00999999	          0.21515838	          0.26188860	          0.00999999	
